<!DOCTYPE svg PUBLIC "-//W3C//DTD SVG 1.1//EN" "http://www.w3.org/Graphics/SVG/1.1/DTD/svg11.dtd">
<!-- Uploaded to: SVG Repo, www.svgrepo.com, Transformed by: SVG Repo Mixer Tools -->
<svg width="800px" height="800px" viewBox="0 0 24 24" fill="none" xmlns="http://www.w3.org/2000/svg">
<g id="SVGRepo_bgCarrier" stroke-width="0"/>
<g id="SVGRepo_tracerCarrier" stroke-linecap="round" stroke-linejoin="round"/>
<g id="SVGRepo_iconCarrier"> <path d="M13 6C13 5.44772 12.5523 5 12 5C11.4477 5 11 5.44772 11 6V9H7C6.44772 9 6 9.44772 6 10C6 10.5523 6.44772 11 7 11H11V18C11 18.5523 11.4477 19 12 19C12.5523 19 13 18.5523 13 18V11H17C17.5523 11 18 10.5523 18 10C18 9.44772 17.5523 9 17 9H13V6Z" fill="#ffffff"/> </g>
</svg>